<?xml version="1.0" encoding="UTF-8"?>
<svg width="46px" height="44px" viewBox="0 0 46 44" version="1.1" xmlns="http://www.w3.org/2000/svg" xmlns:xlink="http://www.w3.org/1999/xlink">
    <title>Combined-Shape</title>
    <g id="Page-1" stroke="none" stroke-width="1" fill="none" fill-rule="evenodd">
        <g id="Artboard" transform="translate(-39.000000, -51.000000)" fill="#4a5568" fill-rule="nonzero">
            <path d="M80.8729658,51.1048637 C83.3576012,55.3653855 69.7023549,63.4448947 65.8441613,64.8946477 C64.929961,64.8946477 63.5266417,66.8544987 61.6342033,70.7742007 C70.3205529,64.7533 77.6306128,65.1619536 83.5639502,72 C85.2825479,74.0838073 85.1016109,75.8301052 83.0211392,77.2388939 C81.6054196,74.2671762 80.4584102,73.1067205 79.5801109,73.7575268 C76.4712726,76.1902255 73.9981486,77.3506812 72.1607389,77.2388939 C65.6195593,76.8409311 67.367701,74.0537012 63.3835054,74.8930826 C65.5850098,78.9217674 65.1307326,83.8534332 62.0106725,88.3093408 C57.8925647,94.1906082 50.5199633,96.1335293 45.5435063,92.6489766 C40.5670493,89.1644239 37.0632753,81.218668 42.6544217,75.3967194 C47.4341841,69.3276774 53.3626297,67.473519 58.2030137,69.8602625 L58.2031582,63.4033025 C58.232042,62.4535132 59.1846796,55.2220117 66.2822553,54.0141178 C71.0915416,53.1956541 75.5173044,52.2259028 79.5595438,51.1048637 L79.5595438,51.1048637 L80.8729658,51.1048637 Z" id="Combined-Shape"></path>
        </g>
    </g>
</svg>
